<?xml version="1.0" encoding="UTF-8" standalone="no"?>
<!-- Created with Inkscape (http://www.inkscape.org/) -->

<svg
   xmlns:dc="http://purl.org/dc/elements/1.1/"
   xmlns:cc="http://creativecommons.org/ns#"
   xmlns:rdf="http://www.w3.org/1999/02/22-rdf-syntax-ns#"
   xmlns:svg="http://www.w3.org/2000/svg"
   xmlns="http://www.w3.org/2000/svg"
   xmlns:xlink="http://www.w3.org/1999/xlink"
   xmlns:sodipodi="http://sodipodi.sourceforge.net/DTD/sodipodi-0.dtd"
   xmlns:inkscape="http://www.inkscape.org/namespaces/inkscape"
   width="270.336mm"
   height="337.29205mm"
   viewBox="0 0 270.336 337.29205"
   version="1.1"
   id="svg864"
   inkscape:version="0.92.4 (5da689c313, 2019-01-14)"
   sodipodi:docname="silhouette.svg">
  <defs
     id="defs858">
    <linearGradient
       inkscape:collect="always"
       id="linearGradient827">
      <stop
         style="stop-color:#a57b3a;stop-opacity:1"
         offset="0"
         id="stop823" />
      <stop
         id="stop819"
         offset="0.48364916"
         style="stop-color:#ab8e23;stop-opacity:1" />
      <stop
         id="stop817"
         offset="0.73410505"
         style="stop-color:#91723d;stop-opacity:1" />
      <stop
         style="stop-color:#ab8e23;stop-opacity:1"
         offset="1"
         id="stop825" />
    </linearGradient>
    <radialGradient
       inkscape:collect="always"
       xlink:href="#linearGradient827"
       id="radialGradient867"
       cx="113.1667"
       cy="143.8488"
       fx="113.1667"
       fy="143.8488"
       r="135.16798"
       gradientTransform="matrix(0.96569503,0.72392705,-1.4031582,1.8717673,205.72481,-207.32712)"
       gradientUnits="userSpaceOnUse" />
  </defs>
  <sodipodi:namedview
     id="base"
     pagecolor="#ffffff"
     bordercolor="#666666"
     borderopacity="1.0"
     inkscape:pageopacity="0.0"
     inkscape:pageshadow="2"
     inkscape:zoom="0.35"
     inkscape:cx="-482.55978"
     inkscape:cy="881.42027"
     inkscape:document-units="mm"
     inkscape:current-layer="layer1"
     showgrid="false"
     inkscape:window-width="1920"
     inkscape:window-height="996"
     inkscape:window-x="1912"
     inkscape:window-y="-8"
     inkscape:window-maximized="1"
     inkscape:snap-page="true"
     inkscape:snap-global="false" />
  <metadata
     id="metadata861">
    <rdf:RDF>
      <cc:Work
         rdf:about="">
        <dc:format>image/svg+xml</dc:format>
        <dc:type
           rdf:resource="http://purl.org/dc/dcmitype/StillImage" />
        <dc:title />
      </cc:Work>
    </rdf:RDF>
  </metadata>
  <g
     inkscape:label="Calque 1"
     inkscape:groupmode="layer"
     id="layer1"
     transform="translate(22.001295,24.79723)">
    <path
       style="opacity:1;vector-effect:none;fill:url(#radialGradient867);fill-opacity:1;fill-rule:nonzero;stroke:none;stroke-width:0.63496023;stroke-linecap:round;stroke-linejoin:round;stroke-miterlimit:4;stroke-dasharray:0.6349602, 1.26992036999999991;stroke-dashoffset:0;stroke-opacity:1;paint-order:normal"
       d="M -22.001271,-24.797238 V 312.49483 H 248.33468 V -24.797238 Z m 120.334255,1.83245 c 3.387506,1.4389 3.429376,2.39032 5.430676,3.82922 2.3316,-6.1999 11.88799,-1.09112 18.03249,-1.32292 4.7057,-0.604 6.84394,-3.82568 18.10226,6.19653 2.9199,-0.766 6.8511,-0.90309 9.95649,3.34191 0,0 5.29122,-1.53125 7.37991,-0.41755 2.0887,1.114 2.7156,7.8672196 2.7156,7.8672196 7.306,4.28111001 15.66604,5.50493 21.30464,14.6213304 1.924,7.741501 2.18077,7.793982 -0.62683,9.712589 l 1.07177,3.436482 c 4.0238,2.2585 5.3597,9.080437 3.87159,16.650147 -3.99819,5.243298 -1.67945,12.008112 -0.27905,16.98811 l 0.55708,6.822839 c -0.328,3.6132 -0.72907,7.042812 -2.08877,8.07651 -1.5584,0.381 -1.95773,1.342122 -1.94923,2.506824 2.9258,3.1899 3.37328,7.040397 2.36678,11.278897 l -1.6707,8.633582 c -5.5443,10.174308 -7.97333,13.005108 -9.88673,14.620808 -5.64491,5.4073 -8.82831,6.16564 -9.74721,2.64584 -1.4389,6.10331 -2.87805,9.98481 -4.31705,12.95011 -2.9736,7.789 -6.40396,14.20664 -10.16476,19.63394 l -1.11414,12.39305 c 2.9333,1.34471 4.61788,5.4368 6.26628,9.6082 l 14.48181,15.45642 c 5.1559,5.5365 10.49084,10.9533 14.89935,16.98811 l 9.46867,8.91211 c 10.52081,3.839 20.62545,11.00828 30.91336,16.70958 7.2242,1.5363 10.17405,10.6348 14.20326,17.82372 -96.43334,112.18964 -217.958226,45.07545 -250.228646,-40.79958 4.4192979,-2.0017 7.4859827,-5.93539 15.3168931,-3.06338 9.1963989,-3.37621 15.0023909,-5.40641 26.9440919,-12.43232 10.90331,-5.1454 20.733414,-16.18272 26.806114,-18.48052 5.619912,-7.1101 5.729015,-16.25071 20.330025,-20.05201 l 1.392682,-0.83612 c -5.938909,-9.92971 -8.492752,-21.72098 -9.190654,-34.53329 -5.033499,0.354 -6.051666,-3.40872 -7.763867,-7.14272 -0.01,-3.9398 0.285964,-4.46699 0.522965,-5.668387 -3.485401,-7.730408 -4.976664,-15.682031 -6.127274,-23.67194 3.510309,-4.090001 2.438945,-7.852825 -1.392163,-11.418424 -5.038744,-6.214065 -6.72336,-13.134305 -1.809709,-21.443653 -1.793399,-7.596008 -0.103947,-7.42365 0.279053,-10.164752 l -5.082894,5.291148 c -0.284001,-2.5771 5.847357,-9.467858 6.475056,-13.36766 -1.029599,-1.7174 -1.707625,-3.434739 -1.810225,-5.152139 2.130601,-0.247999 4.210777,-0.566052 5.430675,-2.088761 -1.398773,0 2.34909,-3.8928 3.225644,-4.61367 -1.749888,0.73683 -13.78985,-0.98938 -13.668933,-3.04529 4.350901,-4.9094004 11.920156,-4.5142004 18.102254,-6.4053004 5.740202,-4.21680999 12.373065,-10.08247 15.873966,-10.16527 l 2.645833,-4.5950696 c -0.408998,-3.0649 -1.838915,-5.95984 -3.341915,-8.84235 4.2408,1.25161 7.177481,3.45979 8.633581,6.75359 l 4.037997,1.81023 c -0.565999,-3.1651 -0.985922,-6.18429 3.898987,-3.89899 0.09,-2.8054 -0.649882,-5.98758 1.322917,-7.93698 z"
       id="rect969"
       inkscape:connector-curvature="0" />
  </g>
</svg>
